# xmcd
#
# Track frame offsets:
#   150
#   16523
#   31502
#   49096
#   69577
#   83493
#   98240
#   116667
#   135293
#   146852
#
# Disc length: 2196 seconds
#
# Revision: 0
# Processed by: cddbd v1.5.1PL0 Copyright (c) Steve Scherf et al.
# Submitted via: Media_Universe 3.0
#
DISCID=7308920a
DTITLE=Rascal Flatts - Melt
DYEAR=1900
DGENRE=Country
TTITLE0=These Days
TTITLE1=Too Good Is True
TTITLE2=I Melt
TTITLE3=Mayberry
TTITLE4=Love You Out Loud
TTITLE5=Dry County Girl
TTITLE6=Like I Am
TTITLE7=You
TTITLE8=Fallin Upside Down
TTITLE9=My Worst Fear
EXTD=
EXTT0=
EXTT1=
EXTT2=
EXTT3=
EXTT4=
EXTT5=
EXTT6=
EXTT7=
EXTT8=
EXTT9=
PLAYORDER=
